PathFileType	4	(X/Y/Z)	Formatted/subject02/trials/walk2/markers.trc
DataRate	CameraRate	NumFrames	NumMarkers	Units	OrigDataRate	OrigDataStartFrame	OrigNumFrames
200.00000000000426	200.00000000000426	4	64	m	200.00000000000426	0	235
Frame#	Time	CLAV			C7			RACR			RASH			RPSH			RLEL			RMEL			RUA1			RUA2			RUA3			RFAsuperior			RFAradius			RFAulna			RASI			RPSI			RCAL			RTOE			RMT5			RTH1			RTH2			RTH3			RTB1			RTB2			RTB3			RLFC			RMFC			RLMAL			RMMAL			RHJC			RKJC			REJC			RAJC			RSJC			LACR			LASH			LPSH			LLEL			LMEL			LUA1			LUA2			LUA3			LFAsuperior			LFAradius			LFAulna			LASI			LPSI			LCAL			LTOE			LMT5			LTH1			LTH2			LTH3			LTB1			LTB2			LTB3			LLFC			LMFC			LLMAL			LMMAL			LHJC			LKJC			LEJC			LAJC			LSJC			
		X1	Y1	Z1	X2	Y2	Z2	X3	Y3	Z3	X4	Y4	Z4	X5	Y5	Z5	X6	Y6	Z6	X7	Y7	Z7	X8	Y8	Z8	X9	Y9	Z9	X10	Y10	Z10	X11	Y11	Z11	X12	Y12	Z12	X13	Y13	Z13	X14	Y14	Z14	X15	Y15	Z15	X16	Y16	Z16	X17	Y17	Z17	X18	Y18	Z18	X19	Y19	Z19	X20	Y20	Z20	X21	Y21	Z21	X22	Y22	Z22	X23	Y23	Z23	X24	Y24	Z24	X25	Y25	Z25	X26	Y26	Z26	X27	Y27	Z27	X28	Y28	Z28	X29	Y29	Z29	X30	Y30	Z30	X31	Y31	Z31	X32	Y32	Z32	X33	Y33	Z33	X34	Y34	Z34	X35	Y35	Z35	X36	Y36	Z36	X37	Y37	Z37	X38	Y38	Z38	X39	Y39	Z39	X40	Y40	Z40	X41	Y41	Z41	X42	Y42	Z42	X43	Y43	Z43	X44	Y44	Z44	X45	Y45	Z45	X46	Y46	Z46	X47	Y47	Z47	X48	Y48	Z48	X49	Y49	Z49	X50	Y50	Z50	X51	Y51	Z51	X52	Y52	Z52	X53	Y53	Z53	X54	Y54	Z54	X55	Y55	Z55	X56	Y56	Z56	X57	Y57	Z57	X58	Y58	Z58	X59	Y59	Z59	X60	Y60	Z60	X61	Y61	Z61	X62	Y62	Z62	X63	Y63	Z63	X64	Y64	Z64	

1	3.08	0.9470335641762634	1.449128660280029	-0.4525012267223142	0.8286739137325194	1.542840443721958	-0.4972111651410032	0.8730294616736219	1.500429419683224	-0.3194821830690658	0.9200224115728419	1.447207622949386	-0.2860431783255737	0.8228002581987399	1.472997684549644	-0.2978830141676559	0.6847743001435816	1.174063463050854	-0.2563710334488606	0.6844211717058428	1.176095105675521	-0.3306565739816121	0.8301689236797187	1.390992512576824	-0.2586087163137856	0.8146324082010467	1.300497998699783	-0.2785440595438847	0.7396842411308949	1.30137135621356	-0.2652867317605319	0.7253164584285706	1.070186635768003	-0.2868927725232112	0.7337758806197689	0.8944936707119041	-0.2422422618483772	0.662995509963604	0.9065672116101664	-0.2220539341064975	0.9222404290620324	1.031699144103875	-0.3736976454799805	0.7388223414933511	1.058763681519276	-0.4593841144970108	1.118770318019798	0.05896751279731989	-0.424761087997924	1.343034873300497	0.1189020860257499	-0.4544911723765955	1.294876988312438	0.07070075698388388	-0.3596137897708705	0.8794851967262671	0.8662390389048142	-0.3197609874716313	0.9644627971391352	0.7832098188586507	-0.3312765226810033	0.9338329477735267	0.6519377964010602	-0.3562804772563272	1.115065893639439	0.3983887367955269	-0.4285766736432435	1.121585321582616	0.3317072394804338	-0.3580563294363211	1.170565744496001	0.242843542634569	-0.4240986689966142	1.021202901797043	0.5400705681774594	-0.3650128753560784	1.018986707271423	0.5394740346639246	-0.4810603826866188	1.187710093277004	0.0972507698214013	-0.3658381220526262	1.196480468744435	0.1010596683055703	-0.4701328206867594	0.8477425880904463	0.9244944776413763	-0.4217228018607925	1.021150355885543	0.5400821564473894	-0.4247119349015893	0.6867242040093989	1.165273010229373	-0.2919965862558304	1.184950915496553	0.08183535423601368	-0.426153323052494	0.8744786938247439	1.459288977306027	-0.2915895494257971	0.914761330742738	1.496572730595442	-0.6641249281204673	0.9679641241192953	1.445950711451792	-0.6824517449440111	0.8629641984752652	1.473803977980071	-0.6952387676534599	0.8967505963274052	1.129425285522809	-0.7851270396820029	0.8537834989113885	1.115796236537691	-0.7232466636456265	0.9184432127603955	1.397435360662288	-0.7376153670483027	0.9398780996285374	1.327128573456101	-0.7268659639377979	0.8549331834037849	1.286893955427826	-0.7459960431509334	0.9592848846017382	1.078988704598575	-0.7133303189020501	1.113310361690018	0.9590513614654054	-0.7293822023312911	1.073522480093015	0.920452131319472	-0.7771679909061295	0.9206996172720847	1.033201116441324	-0.6360607835540768	0.7383411952409484	1.064507962963958	-0.5417160684267055	0.4595451926492473	0.08789481124137848	-0.539803665576102	0.6862022671818836	0.0297305764605849	-0.5384444521222937	0.6091891505497996	0.017015524439389	-0.6226732831156381	0.8170768470177849	0.8116369878393884	-0.6745911107524436	0.8253354107249344	0.6794077988729798	-0.6515293504294719	0.7197973212226849	0.6025330792098169	-0.6283704444141237	0.6992058911977345	0.3659967850523751	-0.5639328496181587	0.6404926599538963	0.2967833407395415	-0.6173830590056165	0.6145170405117496	0.1842183514114475	-0.5538861206885667	0.7032062156574901	0.5264083959041361	-0.6242557200323366	0.7119432416849252	0.528018295708103	-0.5085260180243512	0.5342704797242732	0.08510456099570601	-0.6059784498900895	0.5538352424290797	0.08223549918090656	-0.5031300181991077	0.8454332939703209	0.9252823528245966	-0.5823359985626806	0.7084524570497222	0.5270096032444592	-0.5648873151952782	0.8839395890958264	1.117814143396734	-0.7548434224801218	0.52812757311127	0.07545769944521119	-0.5447218230492463	0.9224204063711973	1.458032065808433	-0.6879981160442346	
2	3.085	0.9536776434098344	1.448763005047376	-0.4516567304377511	0.8351939231417909	1.542348586666679	-0.4963023432889156	0.8795171106433468	1.499759590589272	-0.3186078494960098	0.9265760295580066	1.446565981658558	-0.2852168006123091	0.829319562588725	1.472217667289967	-0.297075415781476	0.6922483150733648	1.172695177672217	-0.2558893471362167	0.6918871632557954	1.174813838848662	-0.3301724182081309	0.8369311485544646	1.390102088056144	-0.257871598193953	0.821690938431513	1.299580870250303	-0.2779141376318262	0.7467405554539805	1.300192845774978	-0.2646546950358521	0.7331410125856294	1.068993618550997	-0.2865656906694961	0.7422432557888782	0.8932826382791882	-0.2421129238475644	0.6714371627456935	0.905089065012016	-0.2218569293565036	0.9295810714387889	1.031163620131243	-0.3735343964539525	0.7460780269075166	1.058311855092763	-0.4590122356387175	1.123432410115212	0.0582654234401378	-0.4248748875285304	1.348223336488054	0.1159653157736844	-0.4550474509864713	1.299781016180342	0.06821598077220073	-0.3600863518555133	0.886645473929123	0.8656456358740989	-0.3194615938091117	0.9716037717349258	0.7826027661878772	-0.3310210459059593	0.9409447181835723	0.6513568563649095	-0.3561260829851505	1.121512324674248	0.3973665555128436	-0.4286457803191827	1.127777638738405	0.3306312770763021	-0.3581532812598742	1.176247870562543	0.2415476981798508	-0.4242757559443479	1.028287364276063	0.5394733484487044	-0.3649228564278162	1.026093299772166	0.5389615547043616	-0.4809711889283566	1.192735050597291	0.09585352142374376	-0.366079061239012	1.201412660932943	0.09965217135008836	-0.4703818929085632	0.8549375381514234	0.9239832342749745	-0.4213872155166167	1.028302072399866	0.5395209164775017	-0.4246362741825989	0.6942263630383103	1.163953461910591	-0.2915253392016285	1.1898352929199	0.08047107779055757	-0.4263960854082552	0.8810162376062466	1.458582513792591	-0.2907719688883054	0.9214487822336802	1.496451722068983	-0.6632320471182602	0.9747424881597377	1.445940224250645	-0.6815996206364845	0.8697055038329138	1.473644044732567	-0.6944069250191847	0.9040572886926639	1.129357734638882	-0.7844521671366377	0.8609708731367485	1.115663433226937	-0.7226692384396153	0.9253742095913517	1.397373260511352	-0.7368013980438691	0.9468575569981939	1.327084620682994	-0.7260300812806112	0.8619951250226718	1.28677012255052	-0.7453570595891544	0.9663623089237999	1.078770228477179	-0.7125000322257427	1.120463052174905	0.9588963499792307	-0.7283016465438389	1.080851185687624	0.920409338747863	-0.7763235965190886	0.9277143244834951	1.03247267578001	-0.6358964513915428	0.7454988238647883	1.063995592470166	-0.5413477599412522	0.4606122187887737	0.09045214578896854	-0.5398665176268794	0.6865030292788402	0.02937154648881819	-0.5389406505648107	0.6091810701031007	0.01768715780899192	-0.6230357059616536	0.823159708984342	0.811358199318138	-0.6743977967977727	0.8308038421948031	0.6790381026216398	-0.6516477129275201	0.7249442112498545	0.6026673667866025	-0.6282897371779669	0.70272585615179	0.3661083845913919	-0.564151228045868	0.6432520988715166	0.2975094553981497	-0.617552804696833	0.6163872485787951	0.1851057264584824	-0.5541402480326842	0.7079683169697684	0.5266219165297756	-0.6242807899805732	0.7171112427365454	0.5279362408707993	-0.5085787122637501	0.5351084537976301	0.08680456262278857	-0.6061720021632422	0.5548857060435214	0.08362044789341549	-0.5033734950550178	0.8524286094389559	0.9246541057200884	-0.5819979491232373	0.7134552220797715	0.5270301900167762	-0.5649198971349058	0.8911929030409547	1.117723032937954	-0.7542002366738709	0.5290196784226069	0.07713452211168448	-0.5449136255744448	0.9291826962079779	1.457956756384679	-0.6871547889124807	
3	3.09	0.9603302559921464	1.448472830564095	-0.4507909527010639	0.8417016470780715	1.541902467349668	-0.4953783939784303	0.8860022621872367	1.499156523512927	-0.3177159599977141	0.9331390635758496	1.446003951608632	-0.2843694447247033	0.8358427872033337	1.471494610695274	-0.2962487123865404	0.6998956307549838	1.171298551737118	-0.2553318297520017	0.6995075839421087	1.173500732829035	-0.3296123360898047	0.8437459293610816	1.389259045369877	-0.2571013246971096	0.8288467484365797	1.298703204383809	-0.2772436268457698	0.7538979319791934	1.299013520878741	-0.2639648522115086	0.7411626685343555	1.067783413641194	-0.2861411978477036	0.7509246559534964	0.8920555367473616	-0.2418956920697076	0.6800814298545155	0.903577578498188	-0.2216058003292243	0.9370485751547535	1.030595026943597	-0.373402790981837	0.7534321149179898	1.057895999438531	-0.4585879272229701	1.127212328195062	0.05770961840038182	-0.4247993505609552	1.35282383116238	0.1117444986365203	-0.4556263385289794	1.303889252713631	0.06477552112044681	-0.3605285471709448	0.8938562046817141	0.8650653002208	-0.3191888447490946	0.9788415316716339	0.7820489002420766	-0.3307397336997614	0.9482309425347585	0.6508153906966663	-0.3559684296977509	1.127931896027006	0.3962124290183305	-0.428647012466531	1.133796816617445	0.3294249774896831	-0.3581694770617776	1.181543977933065	0.2400011963542103	-0.4243587889952014	1.035604378460844	0.5389567936907196	-0.3647762309788163	1.033506937499814	0.5385313643091915	-0.4808266987904384	1.197044953772659	0.09418447484903797	-0.3661979860582804	1.205627736804182	0.09793298288850705	-0.4705104775422773	0.8622207939119677	0.9234724967728478	-0.4210971423272891	1.035757106160728	0.5390368003777918	-0.4245122006611791	0.7018980579265294	1.16260520416901	-0.2909782908972194	1.193963413154465	0.07883076758419472	-0.4265133187025817	0.8875606229091445	1.457945050857769	-0.2899342876608909	0.9281337279482683	1.496385781309432	-0.6623205264848049	0.9815295413402603	1.445995868359388	-0.6807254727011638	0.8764495628579431	1.473525780172962	-0.6935550817759479	0.9111925455588502	1.129369091803792	-0.7837867152744508	0.8680029659956333	1.11562069177291	-0.7220878896069958	0.9322673327142327	1.397374582431932	-0.7359720798585525	0.953772243223055	1.327093415778082	-0.7251950298299248	0.8689682694710402	1.286738582829614	-0.7446936632328358	0.9733296718245544	1.078685306725379	-0.7117232287002737	1.127493067273317	0.9588652876538283	-0.727320900486257	1.088012931045738	0.9204495252734097	-0.7755080950895741	0.9347517875144324	1.031818942810118	-0.6357618446438915	0.7527231554801472	1.063553008506786	-0.5409242772382001	0.4617794656676519	0.09317399945748098	-0.5399059294488334	0.6868156501830677	0.029011392285416	-0.5394257168205731	0.6091816491283958	0.01840892071664516	-0.6233765246110325	0.8293012433522978	0.8111504583086203	-0.6742541703137753	0.836422058775307	0.6787433861819779	-0.6518428268249301	0.7303017701269016	0.6028064140064469	-0.6282545589594379	0.7064553788211091	0.366215195253514	-0.5644043027163822	0.6461848816427923	0.2982647407201865	-0.6177416459094389	0.6183816125542594	0.186050173756677	-0.554398611622636	0.7129905901322554	0.5268307574484692	-0.6243576618885771	0.7225850473690206	0.5278307050460909	-0.5086890065701466	0.5360210565758108	0.08860968495703941	-0.606348151484333	0.5560187564494992	0.08510656365306768	-0.5036026820096227	0.8594484800861417	0.9240925962879644	-0.5817037495826554	0.7187507082383996	0.5270256465136951	-0.5650053407912424	0.8982805058734346	1.11771269669193	-0.753563451341712	0.5299887962337027	0.07892407461201639	-0.5450866435143342	0.9359511006735551	1.457936967608526	-0.6862903156373514	
4	3.095	0.9669880977463665	1.448232694436762	-0.4499062451327134	0.8481996139189747	1.541486413312755	-0.4944362780119054	0.8924879984086346	1.498595613570702	-0.3168057092511212	0.9397114624123892	1.445492546324357	-0.283502965782149	0.8423715477757295	1.47080677490041	-0.2954019971266394	0.7076821189009388	1.169871662106289	-0.2547112349934266	0.7072614047102621	1.172148412550311	-0.3289893152774268	0.8506013852956094	1.388445154759741	-0.2563011747850051	0.8360820655689868	1.297847339598143	-0.2765319312558866	0.7611367731461555	1.297824493159354	-0.2632296809885806	0.7493533889728011	1.066553541459654	-0.2856412877606807	0.7598241971032093	0.8908180288610528	-0.2415885956030028	0.6889403999242965	0.9020362960342575	-0.2212701897553728	0.9446568108351326	1.030056882465141	-0.3733169558521516	0.760877251934197	1.057480284835405	-0.4581101497894289	1.130155121672844	0.05698039083085409	-0.4245739508236078	1.356593370280559	0.1069819560677669	-0.456136345881909	1.3071357370295	0.06090548933939421	-0.3608726620088224	0.9012035754388003	0.8645271295885131	-0.3189362735572227	0.9862397237742835	0.7815571653182842	-0.33044670403676	0.9557171466484383	0.6503253131085011	-0.3557903925579158	1.134280791400591	0.394908914232512	-0.4285947957494923	1.139617918426808	0.3280806660277766	-0.3581139878019086	1.186397799106946	0.2381910079671904	-0.4243629213615344	1.043151751929593	0.538512550886793	-0.364573125433029	1.041180374410061	0.5381585518510523	-0.4806260430327093	1.200592089817965	0.09224246330637048	-0.3661991874428476	1.209042361471665	0.09589002388207563	-0.4705260754799798	0.8696517304144922	0.9229832900088202	-0.4208424035171194	1.043487976843378	0.5386122291197954	-0.42433900851687	0.7097104141342028	1.161223524238145	-0.2903672292798727	1.197266127216231	0.0769084117715752	-0.4265065369754619	0.894112579400846	1.457350996700809	-0.2890770670154755	0.934811971224875	1.496358650956473	-0.6613905638030873	0.9883170857380408	1.446098260454764	-0.6798322049361644	0.8831899779304483	1.473437627316901	-0.6926831587882141	0.9181916237071702	1.12943690779105	-0.7831230853655901	0.8749128303607382	1.115642905079819	-0.721496995836244	0.9391249041930102	1.397421112413461	-0.7351273265797833	0.9606318107711127	1.327139506168637	-0.7243571286880743	0.8758677443859889	1.286773630006776	-0.7440058513579043	0.9801848853656713	1.078669094591903	-0.710968895809311	1.134404760429289	0.9589001141370224	-0.72639932963025	1.095038573083282	0.9205472407485431	-0.7747296314733101	0.9417981123482642	1.031262507276869	-0.635670573234753	0.7599956482602077	1.063131543979009	-0.5404452270892477	0.4630645385457991	0.09607482153436353	-0.5399423652710819	0.6871430773424201	0.02864216885859768	-0.5399122252300581	0.6091974863593955	0.01918134552927414	-0.6237105922787807	0.8355356773716112	0.8110126886989705	-0.6741520867596466	0.8422060595963526	0.6785206376663067	-0.6521073710085341	0.7358744174709549	0.6029594063270898	-0.6282656431281943	0.7103914599444512	0.3663299858058241	-0.5647002316739649	0.6492927348540958	0.2990619416956194	-0.6179602102152858	0.6205073698937533	0.1870623334928708	-0.5546754464090811	0.7182675156205863	0.5270456609742822	-0.6244889484431214	0.72835156311661	0.5277103939140955	-0.5088595341738419	0.5370220487885815	0.09052982507094137	-0.6065246576679805	0.5572472200066949	0.0867009721585002	-0.503835351061791	0.8665353481876703	0.9235931515896506	-0.5814427421596813	0.7243277509912333	0.5270070466334202	-0.5651469109935531	0.9052371499664004	1.117760307370802	-0.7529257905974305	0.5310487876149848	0.08083382188075477	-0.5452590127726828	0.9427182027264975	1.457956710831216	-0.6854063061694909	
